<?xml version="1.0" standalone="no"?><!DOCTYPE svg PUBLIC "-//W3C//DTD SVG 1.1//EN" "http://www.w3.org/Graphics/SVG/1.1/DTD/svg11.dtd"><svg t="1492068661242" class="icon" style="" viewBox="0 0 1024 1024" version="1.1" xmlns="http://www.w3.org/2000/svg" p-id="2388" xmlns:xlink="http://www.w3.org/1999/xlink" width="32" height="32"><defs><style type="text/css"></style></defs><path d="M510.742357 873.646644 510.742357 873.646644c200.425775 0 362.904287-162.477488 362.904287-362.903264S711.168132 147.839093 510.742357 147.839093 147.839093 310.316581 147.839093 510.742357 310.316581 873.646644 510.742357 873.646644L510.742357 873.646644 510.742357 873.646644zM510.742357 957.393 510.742357 957.393c-246.678192 0-446.650643-199.972451-446.650643-446.650643S264.064164 64.091714 510.742357 64.091714s446.650643 199.972451 446.650643 446.650643S757.420549 957.393 510.742357 957.393L510.742357 957.393 510.742357 957.393zM371.164415 496.78446c38.542828 0 69.789483-31.245631 69.789483-69.789483s-31.245631-69.789483-69.789483-69.789483-69.789483 31.245631-69.789483 69.789483S332.620563 496.78446 371.164415 496.78446L371.164415 496.78446 371.164415 496.78446zM650.321322 496.78446c38.542828 0 69.789483-31.245631 69.789483-69.789483s-31.245631-69.789483-69.789483-69.789483-69.789483 31.245631-69.789483 69.789483S611.777471 496.78446 650.321322 496.78446L650.321322 496.78446 650.321322 496.78446zM510.742357 711.735044c-70.936609 0-134.833895-44.928259-163.711596-111.663172 0 0-2.702552-28.013007-32.18298-28.013007-29.479405 0-27.431769 28.013007-27.431769 28.013007 31.077809 95.710852 118.818129 167.493735 223.325321 167.493735 104.369046 0 197.074448-71.978335 223.325321-167.493735 0 0 0-28.013007-27.200502-28.013007-27.199479 0-31.508621 28.013007-31.508621 28.013007C650.39807 664.847154 583.466682 711.735044 510.742357 711.735044L510.742357 711.735044z" p-id="2389" fill="#2c2c2c"></path></svg>